<mxfile host="65bd71144e">
    <diagram id="CbfQv_aKyoJP-59CZR0b" name="Page-1">
        <mxGraphModel dx="1304" dy="979" grid="1" gridSize="10" guides="1" tooltips="1" connect="1" arrows="1" fold="1" page="1" pageScale="1" pageWidth="1169" pageHeight="1654" math="0" shadow="0">
            <root>
                <mxCell id="0"/>
                <mxCell id="1" parent="0"/>
                <mxCell id="110" value="" style="ellipse;whiteSpace=wrap;html=1;aspect=fixed;strokeColor=#FF3B14;strokeWidth=4;" parent="1" vertex="1">
                    <mxGeometry x="550" y="760" width="223.75" height="223.75" as="geometry"/>
                </mxCell>
                <mxCell id="111" value="5. 3 times" style="rounded=0;whiteSpace=wrap;html=1;align=left;fillColor=#f5f5f5;fontColor=#333333;strokeColor=#666666;strokeWidth=3;" parent="1" vertex="1">
                    <mxGeometry x="55" y="620" width="210" height="140" as="geometry"/>
                </mxCell>
                <mxCell id="112" value="" style="edgeStyle=none;html=1;strokeColor=#808080;strokeWidth=3;fontColor=#000000;" parent="1" source="113" target="115" edge="1">
                    <mxGeometry relative="1" as="geometry"/>
                </mxCell>
                <mxCell id="113" value="1. Power ON" style="ellipse;whiteSpace=wrap;html=1;fillColor=#f5f5f5;fontColor=#333333;strokeColor=#666666;strokeWidth=3;" parent="1" vertex="1">
                    <mxGeometry x="100" y="30" width="120" height="80" as="geometry"/>
                </mxCell>
                <mxCell id="114" value="" style="edgeStyle=none;html=1;strokeColor=#808080;strokeWidth=3;fontColor=#000000;" parent="1" source="115" target="117" edge="1">
                    <mxGeometry relative="1" as="geometry"/>
                </mxCell>
                <mxCell id="115" value="2.a. assign variables&lt;br&gt;&lt;div style=&quot;&quot;&gt;&lt;/div&gt;chustv=1000ms&lt;br&gt;sleep=0&lt;br&gt;t1=50ms&lt;br&gt;t2=100ms&lt;br&gt;t3=150ms&lt;br&gt;t4=300ms&lt;br&gt;t5=500ms&lt;br&gt;t6=1000ms&lt;br&gt;t7=2000ms&lt;br&gt;2.b. config PWM&lt;br&gt;PWM=40%&lt;br&gt;chast=2048Hz" style="rounded=0;whiteSpace=wrap;html=1;align=left;fillColor=#f5f5f5;fontColor=#333333;strokeColor=#666666;strokeWidth=3;" parent="1" vertex="1">
                    <mxGeometry x="100" y="140" width="120" height="200" as="geometry"/>
                </mxCell>
                <mxCell id="116" value="" style="edgeStyle=none;html=1;fillColor=#f5f5f5;strokeColor=#666666;strokeWidth=3;" parent="1" source="117" target="120" edge="1">
                    <mxGeometry relative="1" as="geometry"/>
                </mxCell>
                <mxCell id="117" value="3. assign input/output ports&lt;br&gt;PA3 - PWM output (initial state 0)&lt;br&gt;PA4 - Output -1 â€“ (initial state 0)&lt;br&gt;PA6- input - 1 (spring vibration sensor)&lt;br&gt;PA5 - input -1 (ball vibration sensor)" style="text;whiteSpace=wrap;html=1;fillColor=#f5f5f5;fontColor=#333333;strokeColor=#666666;strokeWidth=3;" parent="1" vertex="1">
                    <mxGeometry x="40" y="370" width="240" height="100" as="geometry"/>
                </mxCell>
                <mxCell id="118" value="N" style="edgeStyle=none;html=1;fillColor=#f5f5f5;strokeColor=#666666;strokeWidth=3;" parent="1" source="120" edge="1">
                    <mxGeometry x="-0.8983" y="10" relative="1" as="geometry">
                        <mxPoint x="160" y="490" as="targetPoint"/>
                        <Array as="points">
                            <mxPoint x="10" y="550"/>
                            <mxPoint x="10" y="490"/>
                        </Array>
                        <mxPoint as="offset"/>
                    </mxGeometry>
                </mxCell>
                <mxCell id="119" value="Y" style="edgeStyle=none;html=1;fillColor=#f5f5f5;strokeColor=#666666;strokeWidth=3;" parent="1" source="120" edge="1">
                    <mxGeometry x="-0.3333" y="-30" relative="1" as="geometry">
                        <mxPoint x="160" y="620" as="targetPoint"/>
                        <mxPoint as="offset"/>
                    </mxGeometry>
                </mxCell>
                <mxCell id="120" value="4. read PA5 == 1&lt;br&gt;more than 2000ms?" style="rhombus;whiteSpace=wrap;html=1;fillColor=#f5f5f5;fontColor=#333333;strokeColor=#666666;strokeWidth=3;" parent="1" vertex="1">
                    <mxGeometry x="35" y="510" width="250" height="80" as="geometry"/>
                </mxCell>
                <mxCell id="121" value="" style="edgeStyle=none;html=1;fillColor=#f5f5f5;strokeColor=#666666;strokeWidth=3;" parent="1" source="122" target="124" edge="1">
                    <mxGeometry relative="1" as="geometry"/>
                </mxCell>
                <mxCell id="122" value="5.a. PA4 = 1&lt;br&gt;delay(t6)&lt;br&gt;PA4 = 0" style="whiteSpace=wrap;html=1;fillColor=#f5f5f5;fontColor=#333333;strokeColor=#666666;strokeWidth=3;" parent="1" vertex="1">
                    <mxGeometry x="100" y="640" width="120" height="50" as="geometry"/>
                </mxCell>
                <mxCell id="123" value="" style="edgeStyle=none;html=1;entryX=0.5;entryY=0;entryDx=0;entryDy=0;fillColor=#f5f5f5;strokeColor=#666666;strokeWidth=3;" parent="1" target="142" edge="1">
                    <mxGeometry relative="1" as="geometry">
                        <mxPoint x="160" y="760" as="sourcePoint"/>
                    </mxGeometry>
                </mxCell>
                <mxCell id="124" value="5.b. Out PWM A3 = chast&lt;br&gt;during t6" style="whiteSpace=wrap;html=1;fillColor=#f5f5f5;fontColor=#333333;strokeColor=#666666;strokeWidth=3;" parent="1" vertex="1">
                    <mxGeometry x="80" y="710" width="160" height="40" as="geometry"/>
                </mxCell>
                <mxCell id="125" value="" style="edgeStyle=none;html=1;entryX=0.5;entryY=0.01;entryDx=0;entryDy=0;entryPerimeter=0;fillColor=#f5f5f5;strokeColor=#666666;strokeWidth=3;" parent="1" source="126" target="127" edge="1">
                    <mxGeometry relative="1" as="geometry">
                        <mxPoint x="160" y="907" as="targetPoint"/>
                    </mxGeometry>
                </mxCell>
                <mxCell id="126" value="7. Sleep" style="whiteSpace=wrap;html=1;fillColor=#f5f5f5;fontColor=#333333;strokeColor=#666666;strokeWidth=3;" parent="1" vertex="1">
                    <mxGeometry x="100" y="837" width="120" height="40" as="geometry"/>
                </mxCell>
                <mxCell id="127" value="8. Wakeup, read PA6 == ???&lt;br&gt;more than t6(ms)?" style="rhombus;whiteSpace=wrap;html=1;fillColor=#f5f5f5;fontColor=#333333;strokeColor=#666666;strokeWidth=3;" parent="1" vertex="1">
                    <mxGeometry x="35" y="910" width="250" height="80" as="geometry"/>
                </mxCell>
                <mxCell id="128" value="" style="edgeStyle=none;html=1;exitX=1;exitY=0.5;exitDx=0;exitDy=0;entryX=0.5;entryY=0;entryDx=0;entryDy=0;fillColor=#f5f5f5;strokeColor=#666666;strokeWidth=3;" parent="1" source="124" target="122" edge="1">
                    <mxGeometry x="-0.8965" y="10" relative="1" as="geometry">
                        <mxPoint x="100" y="670" as="targetPoint"/>
                        <mxPoint x="224.9999999999999" y="730" as="sourcePoint"/>
                        <Array as="points">
                            <mxPoint x="250" y="730"/>
                            <mxPoint x="250" y="670"/>
                            <mxPoint x="250" y="630"/>
                            <mxPoint x="160" y="630"/>
                        </Array>
                        <mxPoint as="offset"/>
                    </mxGeometry>
                </mxCell>
                <mxCell id="129" value="N" style="edgeStyle=none;html=1;exitX=0.5;exitY=1;exitDx=0;exitDy=0;fillColor=#f5f5f5;strokeColor=#666666;strokeWidth=3;" parent="1" source="127" edge="1">
                    <mxGeometry x="-0.3333" y="20" relative="1" as="geometry">
                        <mxPoint x="170" y="1020" as="sourcePoint"/>
                        <mxPoint x="160" y="1030" as="targetPoint"/>
                        <mxPoint as="offset"/>
                    </mxGeometry>
                </mxCell>
                <mxCell id="130" value="9. 1 times" style="rounded=0;whiteSpace=wrap;html=1;align=left;fillColor=#f5f5f5;fontColor=#333333;strokeColor=#666666;strokeWidth=3;" parent="1" vertex="1">
                    <mxGeometry x="55" y="1030" width="210" height="140" as="geometry"/>
                </mxCell>
                <mxCell id="131" value="" style="edgeStyle=none;html=1;fillColor=#f5f5f5;strokeColor=#666666;strokeWidth=3;" parent="1" source="132" target="133" edge="1">
                    <mxGeometry relative="1" as="geometry"/>
                </mxCell>
                <mxCell id="132" value="9.a. PA4 = 1&lt;br&gt;delay(t1)&lt;br&gt;PA4 = 0" style="whiteSpace=wrap;html=1;fillColor=#f5f5f5;fontColor=#333333;strokeColor=#666666;strokeWidth=3;" parent="1" vertex="1">
                    <mxGeometry x="100" y="1040" width="120" height="50" as="geometry"/>
                </mxCell>
                <mxCell id="133" value="9.b. Out PWM A3 = chast&lt;br&gt;during t6" style="whiteSpace=wrap;html=1;fillColor=#f5f5f5;fontColor=#333333;strokeColor=#666666;strokeWidth=3;" parent="1" vertex="1">
                    <mxGeometry x="80" y="1120" width="160" height="40" as="geometry"/>
                </mxCell>
                <mxCell id="134" value="" style="edgeStyle=none;html=1;exitX=0.5;exitY=1;exitDx=0;exitDy=0;fillColor=#f5f5f5;strokeColor=#666666;strokeWidth=3;" parent="1" source="130" edge="1">
                    <mxGeometry x="-0.8983" y="10" relative="1" as="geometry">
                        <mxPoint x="160" y="830" as="targetPoint"/>
                        <mxPoint x="412.5" y="982" as="sourcePoint"/>
                        <Array as="points">
                            <mxPoint x="160" y="1210"/>
                            <mxPoint x="20" y="1210"/>
                            <mxPoint x="20" y="830"/>
                            <mxPoint x="90" y="830"/>
                        </Array>
                        <mxPoint as="offset"/>
                    </mxGeometry>
                </mxCell>
                <mxCell id="135" style="edgeStyle=orthogonalEdgeStyle;rounded=0;orthogonalLoop=1;jettySize=auto;html=1;exitX=0.5;exitY=1;exitDx=0;exitDy=0;entryX=0.5;entryY=0;entryDx=0;entryDy=0;" parent="1" source="136" target="150" edge="1">
                    <mxGeometry relative="1" as="geometry"/>
                </mxCell>
                <mxCell id="136" value="10. 1 times" style="rounded=0;whiteSpace=wrap;html=1;align=left;fillColor=#f5f5f5;fontColor=#333333;strokeColor=#666666;strokeWidth=3;" parent="1" vertex="1">
                    <mxGeometry x="370" y="490" width="200" height="160" as="geometry"/>
                </mxCell>
                <mxCell id="137" value="" style="edgeStyle=none;html=1;fillColor=#f5f5f5;strokeColor=#666666;strokeWidth=3;" parent="1" source="139" target="140" edge="1">
                    <mxGeometry relative="1" as="geometry"/>
                </mxCell>
                <mxCell id="138" value="" style="edgeStyle=none;html=1;fillColor=#f5f5f5;strokeColor=#666666;strokeWidth=3;" parent="1" source="139" target="140" edge="1">
                    <mxGeometry relative="1" as="geometry"/>
                </mxCell>
                <mxCell id="139" value="10.a. PA4 = 1&lt;br&gt;Read PA5, PA6 during t3&lt;br&gt;PA4 = 0" style="whiteSpace=wrap;html=1;fillColor=#f5f5f5;fontColor=#333333;strokeColor=#666666;strokeWidth=3;" parent="1" vertex="1">
                    <mxGeometry x="415" y="500" width="120" height="60" as="geometry"/>
                </mxCell>
                <mxCell id="140" value="&lt;font style=&quot;vertical-align: inherit;&quot;&gt;&lt;font style=&quot;vertical-align: inherit;&quot;&gt;10.b.&amp;nbsp;&lt;/font&gt;&lt;/font&gt;5.b. Out PWM A3 = chast&lt;br&gt;Read PA6, PA5 during t3" style="whiteSpace=wrap;html=1;fillColor=#f5f5f5;fontColor=#333333;strokeColor=#666666;strokeWidth=3;" parent="1" vertex="1">
                    <mxGeometry x="395" y="580" width="165" height="50" as="geometry"/>
                </mxCell>
                <mxCell id="141" value="" style="edgeStyle=none;html=1;entryX=0.5;entryY=0;entryDx=0;entryDy=0;fillColor=#f5f5f5;strokeColor=#666666;strokeWidth=3;" parent="1" source="142" target="126" edge="1">
                    <mxGeometry relative="1" as="geometry">
                        <mxPoint x="160" y="830" as="targetPoint"/>
                    </mxGeometry>
                </mxCell>
                <mxCell id="142" value="6. sleep = 1" style="whiteSpace=wrap;html=1;fillColor=#f5f5f5;fontColor=#333333;strokeColor=#666666;strokeWidth=3;" parent="1" vertex="1">
                    <mxGeometry x="100" y="775" width="120" height="40" as="geometry"/>
                </mxCell>
                <mxCell id="143" value="Y" style="edgeStyle=none;html=1;exitX=1;exitY=0.5;exitDx=0;exitDy=0;entryX=0.5;entryY=0;entryDx=0;entryDy=0;fillColor=#f5f5f5;strokeColor=#666666;strokeWidth=3;" parent="1" source="127" target="136" edge="1">
                    <mxGeometry x="-0.8571" y="10" relative="1" as="geometry">
                        <mxPoint x="170" y="1000" as="sourcePoint"/>
                        <mxPoint x="330" y="880" as="targetPoint"/>
                        <mxPoint as="offset"/>
                        <Array as="points">
                            <mxPoint x="330" y="950"/>
                            <mxPoint x="330" y="420"/>
                            <mxPoint x="470" y="420"/>
                        </Array>
                    </mxGeometry>
                </mxCell>
                <mxCell id="144" value="Y" style="edgeStyle=none;html=1;fillColor=#f5f5f5;strokeColor=#666666;strokeWidth=3;exitX=1;exitY=0.5;exitDx=0;exitDy=0;" parent="1" source="171" edge="1">
                    <mxGeometry x="-0.8571" y="10" relative="1" as="geometry">
                        <mxPoint x="540" y="704" as="sourcePoint"/>
                        <mxPoint x="470" y="460" as="targetPoint"/>
                        <mxPoint as="offset"/>
                        <Array as="points">
                            <mxPoint x="620" y="755"/>
                            <mxPoint x="620" y="460"/>
                        </Array>
                    </mxGeometry>
                </mxCell>
                <mxCell id="145" value="N" style="edgeStyle=none;html=1;fillColor=#f5f5f5;strokeColor=#666666;strokeWidth=3;entryX=0.5;entryY=0;entryDx=0;entryDy=0;exitX=0.5;exitY=1;exitDx=0;exitDy=0;" parent="1" source="171" target="158" edge="1">
                    <mxGeometry x="-0.6508" y="20" relative="1" as="geometry">
                        <mxPoint x="650" y="710" as="sourcePoint"/>
                        <mxPoint x="700" y="810" as="targetPoint"/>
                        <Array as="points">
                            <mxPoint x="470" y="820"/>
                            <mxPoint x="590" y="800"/>
                            <mxPoint x="640" y="790"/>
                            <mxPoint x="664" y="780"/>
                        </Array>
                        <mxPoint as="offset"/>
                    </mxGeometry>
                </mxCell>
                <mxCell id="146" style="edgeStyle=orthogonalEdgeStyle;rounded=0;orthogonalLoop=1;jettySize=auto;html=1;entryX=0.31;entryY=-0.075;entryDx=0;entryDy=0;entryPerimeter=0;exitX=0;exitY=0.5;exitDx=0;exitDy=0;" parent="1" source="150" target="154" edge="1">
                    <mxGeometry relative="1" as="geometry">
                        <mxPoint x="465" y="860" as="targetPoint"/>
                        <Array as="points">
                            <mxPoint x="375" y="700"/>
                            <mxPoint x="375" y="860"/>
                            <mxPoint x="449" y="860"/>
                        </Array>
                    </mxGeometry>
                </mxCell>
                <mxCell id="147" value="Y" style="edgeLabel;html=1;align=center;verticalAlign=middle;resizable=0;points=[];" parent="146" connectable="0" vertex="1">
                    <mxGeometry x="-0.2267" y="1" relative="1" as="geometry">
                        <mxPoint as="offset"/>
                    </mxGeometry>
                </mxCell>
                <mxCell id="148" style="edgeStyle=orthogonalEdgeStyle;rounded=0;orthogonalLoop=1;jettySize=auto;html=1;exitX=0.5;exitY=1;exitDx=0;exitDy=0;entryX=0.5;entryY=0;entryDx=0;entryDy=0;" parent="1" source="150" target="171" edge="1">
                    <mxGeometry relative="1" as="geometry"/>
                </mxCell>
                <mxCell id="149" value="N" style="edgeLabel;html=1;align=center;verticalAlign=middle;resizable=0;points=[];" parent="148" connectable="0" vertex="1">
                    <mxGeometry x="-0.2941" y="-1" relative="1" as="geometry">
                        <mxPoint as="offset"/>
                    </mxGeometry>
                </mxCell>
                <mxCell id="150" value="PA5 == 1" style="rhombus;whiteSpace=wrap;html=1;fillColor=#f5f5f5;fontColor=#333333;strokeColor=#666666;strokeWidth=3;" parent="1" vertex="1">
                    <mxGeometry x="395" y="680" width="140" height="40" as="geometry"/>
                </mxCell>
                <mxCell id="151" value="" style="edgeStyle=none;html=1;fillColor=#f5f5f5;strokeColor=#666666;strokeWidth=3;" parent="1" source="152" target="156" edge="1">
                    <mxGeometry relative="1" as="geometry"/>
                </mxCell>
                <mxCell id="152" value="Sleep" style="whiteSpace=wrap;html=1;fillColor=#f5f5f5;fontColor=#333333;strokeColor=#666666;strokeWidth=3;" parent="1" vertex="1">
                    <mxGeometry x="411.25" y="951" width="120" height="40" as="geometry"/>
                </mxCell>
                <mxCell id="153" value="" style="edgeStyle=none;html=1;entryX=0.5;entryY=0;entryDx=0;entryDy=0;fillColor=#f5f5f5;strokeColor=#666666;strokeWidth=3;" parent="1" source="154" target="152" edge="1">
                    <mxGeometry relative="1" as="geometry">
                        <mxPoint x="471.25" y="944" as="targetPoint"/>
                    </mxGeometry>
                </mxCell>
                <mxCell id="154" value="sleep = 2" style="whiteSpace=wrap;html=1;fillColor=#f5f5f5;fontColor=#333333;strokeColor=#666666;strokeWidth=3;" parent="1" vertex="1">
                    <mxGeometry x="411.25" y="889" width="120" height="40" as="geometry"/>
                </mxCell>
                <mxCell id="155" value="Y" style="edgeStyle=none;html=1;exitX=0.5;exitY=1;exitDx=0;exitDy=0;fillColor=#f5f5f5;strokeColor=#666666;strokeWidth=3;" parent="1" source="156" edge="1">
                    <mxGeometry x="-0.968" y="-10" relative="1" as="geometry">
                        <mxPoint x="156.47058823529412" y="599.9999999999998" as="targetPoint"/>
                        <Array as="points">
                            <mxPoint x="470" y="1150"/>
                            <mxPoint x="300" y="1150"/>
                            <mxPoint x="300" y="600"/>
                        </Array>
                        <mxPoint as="offset"/>
                    </mxGeometry>
                </mxCell>
                <mxCell id="156" value="12. Wakeup, read PA5 == 1&lt;br&gt;more than 2000(ms)?" style="rhombus;whiteSpace=wrap;html=1;fillColor=#f5f5f5;fontColor=#333333;strokeColor=#666666;strokeWidth=3;" parent="1" vertex="1">
                    <mxGeometry x="346.25" y="1024" width="247.5" height="90" as="geometry"/>
                </mxCell>
                <mxCell id="157" value="" style="edgeStyle=none;html=1;entryX=0.5;entryY=0;entryDx=0;entryDy=0;fillColor=#f5f5f5;strokeColor=#666666;strokeWidth=3;" parent="1" source="158" target="161" edge="1">
                    <mxGeometry relative="1" as="geometry"/>
                </mxCell>
                <mxCell id="158" value="11.a. PA4 = 1&lt;br&gt;Read PA6, during t4&lt;br&gt;PA4 = 0&lt;br&gt;Read PA6, during t7" style="whiteSpace=wrap;html=1;fillColor=#f5f5f5;fontColor=#333333;strokeColor=#666666;strokeWidth=3;" parent="1" vertex="1">
                    <mxGeometry x="603.75" y="811.5" width="120" height="60" as="geometry"/>
                </mxCell>
                <mxCell id="159" value="N" style="edgeStyle=none;html=1;fillColor=#f5f5f5;strokeColor=#666666;strokeWidth=3;" parent="1" source="161" edge="1">
                    <mxGeometry x="-0.978" y="-20" relative="1" as="geometry">
                        <mxPoint x="150" y="1210" as="targetPoint"/>
                        <Array as="points">
                            <mxPoint x="664" y="1210"/>
                        </Array>
                        <mxPoint as="offset"/>
                    </mxGeometry>
                </mxCell>
                <mxCell id="160" value="Y" style="edgeStyle=none;html=1;exitX=1;exitY=0.5;exitDx=0;exitDy=0;fillColor=#f5f5f5;strokeColor=#666666;strokeWidth=3;" parent="1" source="161" edge="1">
                    <mxGeometry x="-0.9409" y="-8" relative="1" as="geometry">
                        <mxPoint x="470" y="459.9999999999998" as="targetPoint"/>
                        <Array as="points">
                            <mxPoint x="750" y="920"/>
                            <mxPoint x="750" y="460"/>
                        </Array>
                        <mxPoint x="1" as="offset"/>
                    </mxGeometry>
                </mxCell>
                <mxCell id="161" value="PA6 == 1" style="rhombus;whiteSpace=wrap;html=1;fillColor=#f5f5f5;fontColor=#333333;strokeColor=#666666;strokeWidth=3;" parent="1" vertex="1">
                    <mxGeometry x="593.75" y="900" width="140" height="40" as="geometry"/>
                </mxCell>
                <mxCell id="162" value="N" style="edgeStyle=none;html=1;exitX=1;exitY=0.5;exitDx=0;exitDy=0;entryX=1;entryY=0.5;entryDx=0;entryDy=0;fillColor=#f5f5f5;strokeColor=#666666;strokeWidth=3;" parent="1" source="156" target="152" edge="1">
                    <mxGeometry x="-0.9455" y="-9" relative="1" as="geometry">
                        <Array as="points">
                            <mxPoint x="610" y="1070"/>
                            <mxPoint x="610" y="971"/>
                        </Array>
                        <mxPoint as="offset"/>
                        <mxPoint x="346.25" y="1069" as="sourcePoint"/>
                        <mxPoint x="411.25" y="971" as="targetPoint"/>
                    </mxGeometry>
                </mxCell>
                <mxCell id="163" value="" style="edgeStyle=none;html=1;fillColor=#f5f5f5;strokeColor=#CC0000;strokeWidth=3;entryX=1;entryY=1;entryDx=0;entryDy=0;exitX=0;exitY=0;exitDx=0;exitDy=0;" parent="1" source="164" target="171" edge="1">
                    <mxGeometry relative="1" as="geometry">
                        <mxPoint x="800" y="1060" as="sourcePoint"/>
                        <mxPoint x="481.25" y="834" as="targetPoint"/>
                    </mxGeometry>
                </mxCell>
                <mxCell id="164" value="&lt;div&gt;we read both sensors PA5 and PA6&lt;/div&gt;&lt;div&gt;here the priority of PA5 ==1 (one short circuit) then&lt;/div&gt;&lt;div&gt;we fulfill the condition for PA5&lt;/div&gt;&lt;div&gt;if not then we fulfill the condition for sensor PA6 == 1&lt;/div&gt;&lt;div&gt;(one short circuit)&lt;/div&gt;&lt;div&gt;the condition for PA6 and PA5 is fulfilled after performing point 10&lt;/div&gt;" style="whiteSpace=wrap;html=1;fillColor=#f8cecc;strokeColor=#b85450;strokeWidth=3;fontStyle=1;fontColor=#000000;" parent="1" vertex="1">
                    <mxGeometry x="760" y="1024" width="320" height="146" as="geometry"/>
                </mxCell>
                <mxCell id="165" value="" style="edgeStyle=none;html=1;fillColor=#f5f5f5;strokeColor=#CC0000;strokeWidth=3;entryX=1;entryY=1;entryDx=0;entryDy=0;" parent="1" edge="1">
                    <mxGeometry relative="1" as="geometry">
                        <mxPoint x="558.75" y="1306" as="sourcePoint"/>
                        <mxPoint x="265.0000000000002" y="960" as="targetPoint"/>
                    </mxGeometry>
                </mxCell>
                <mxCell id="166" value="&lt;br&gt;&lt;div&gt;normal state of PA6, PA5 is 0,&lt;/div&gt;&lt;div&gt;if these sensors are triggered, it changes to 1,&lt;/div&gt;&lt;div&gt;Sensors cannot be in a permanently closed state.&lt;/div&gt;&lt;div&gt;they close and then open&lt;/div&gt;&lt;div&gt;if after the time &quot;t&quot; they continue to close, then the condition is met.&lt;/div&gt;&lt;div&gt;I designated many variables &quot;t&quot; so that it would be easier for me to choose the time of their correct operation when debugging the device.&lt;/div&gt;" style="whiteSpace=wrap;html=1;fillColor=#f8cecc;strokeColor=#b85450;strokeWidth=3;fontStyle=1;fontColor=#000000;" parent="1" vertex="1">
                    <mxGeometry x="558.75" y="1240" width="351.25" height="200" as="geometry"/>
                </mxCell>
                <mxCell id="167" value="&lt;div&gt;&lt;div&gt;B4. If PA6 = 1 during t3,&lt;/div&gt;&lt;div&gt;(keep its value (1) and process the if-else condition at the end of &quot;10. 1 time&quot;)&lt;/div&gt;&lt;/div&gt;" style="whiteSpace=wrap;html=1;fillColor=#f8cecc;strokeColor=#b85450;strokeWidth=3;fontStyle=1;fontColor=#000000;align=left;" parent="1" vertex="1">
                    <mxGeometry x="238.75" y="250" width="465" height="80" as="geometry"/>
                </mxCell>
                <mxCell id="168" value="" style="edgeStyle=none;html=1;fillColor=#f5f5f5;strokeColor=#CC0000;strokeWidth=3;entryX=0;entryY=0;entryDx=0;entryDy=0;exitX=0.25;exitY=1;exitDx=0;exitDy=0;" parent="1" source="167" target="139" edge="1">
                    <mxGeometry relative="1" as="geometry">
                        <mxPoint x="697.1500000000001" y="430" as="sourcePoint"/>
                        <mxPoint x="570.0000000000002" y="590" as="targetPoint"/>
                    </mxGeometry>
                </mxCell>
                <mxCell id="169" value="&lt;div&gt;we perform 10 cycles PA4=1 and PA=0&lt;/div&gt;&lt;div&gt;condition PA6 is performed immediately, PA6==1&lt;/div&gt;&lt;div&gt;no need to complete point 11&lt;/div&gt;" style="whiteSpace=wrap;html=1;fillColor=#f8cecc;strokeColor=#b85450;strokeWidth=3;fontStyle=1;fontColor=#000000;" parent="1" vertex="1">
                    <mxGeometry x="850" y="904.5" width="220" height="91" as="geometry"/>
                </mxCell>
                <mxCell id="170" value="" style="edgeStyle=none;html=1;fillColor=#f5f5f5;strokeColor=#CC0000;strokeWidth=3;exitX=0;exitY=0;exitDx=0;exitDy=0;" parent="1" source="169" edge="1">
                    <mxGeometry relative="1" as="geometry">
                        <mxPoint x="810" y="1040" as="sourcePoint"/>
                        <mxPoint x="760" y="820" as="targetPoint"/>
                        <Array as="points">
                            <mxPoint x="810" y="820"/>
                        </Array>
                    </mxGeometry>
                </mxCell>
                <mxCell id="171" value="PA6 == 1" style="rhombus;whiteSpace=wrap;html=1;fillColor=#f5f5f5;fontColor=#333333;strokeColor=#666666;strokeWidth=3;" parent="1" vertex="1">
                    <mxGeometry x="400" y="760" width="135" height="40" as="geometry"/>
                </mxCell>
                <mxCell id="172" value="" style="whiteSpace=wrap;html=1;fillColor=#f8cecc;strokeColor=#b85450;strokeWidth=3;fontStyle=1;fontColor=#000000;" parent="1" vertex="1">
                    <mxGeometry x="288.75" y="20" width="451.25" height="180" as="geometry"/>
                </mxCell>
                <mxCell id="173" value="" style="endArrow=none;html=1;rounded=0;" parent="1" edge="1">
                    <mxGeometry width="50" height="50" relative="1" as="geometry">
                        <mxPoint x="315" y="162" as="sourcePoint"/>
                        <mxPoint x="435" y="162" as="targetPoint"/>
                        <Array as="points">
                            <mxPoint x="315" y="112"/>
                            <mxPoint x="355" y="112"/>
                            <mxPoint x="355" y="162"/>
                            <mxPoint x="395" y="162"/>
                            <mxPoint x="395" y="112"/>
                            <mxPoint x="435" y="112"/>
                        </Array>
                    </mxGeometry>
                </mxCell>
                <mxCell id="174" value="" style="endArrow=classic;startArrow=classic;html=1;rounded=0;" parent="1" edge="1">
                    <mxGeometry width="50" height="50" relative="1" as="geometry">
                        <mxPoint x="355" y="92" as="sourcePoint"/>
                        <mxPoint x="314.9995721271392" y="92.26999999999998" as="targetPoint"/>
                    </mxGeometry>
                </mxCell>
                <mxCell id="175" value="" style="endArrow=classic;startArrow=classic;html=1;rounded=0;" parent="1" edge="1">
                    <mxGeometry width="50" height="50" relative="1" as="geometry">
                        <mxPoint x="395" y="102" as="sourcePoint"/>
                        <mxPoint x="354.9995721271392" y="102.26999999999998" as="targetPoint"/>
                    </mxGeometry>
                </mxCell>
                <mxCell id="176" value="A" style="text;html=1;align=center;verticalAlign=middle;resizable=0;points=[];autosize=1;strokeColor=none;fillColor=none;" parent="1" vertex="1">
                    <mxGeometry x="320" y="60" width="30" height="30" as="geometry"/>
                </mxCell>
                <mxCell id="177" value="B" style="text;html=1;align=center;verticalAlign=middle;resizable=0;points=[];autosize=1;strokeColor=none;fillColor=none;" parent="1" vertex="1">
                    <mxGeometry x="360" y="70" width="30" height="30" as="geometry"/>
                </mxCell>
                <mxCell id="178" value="PWM" style="text;html=1;align=center;verticalAlign=middle;resizable=0;points=[];autosize=1;strokeColor=none;fillColor=none;" parent="1" vertex="1">
                    <mxGeometry x="340" y="30" width="50" height="30" as="geometry"/>
                </mxCell>
                <mxCell id="179" value="if A=B PWM 100%" style="text;html=1;align=center;verticalAlign=middle;resizable=0;points=[];autosize=1;strokeColor=none;fillColor=none;" parent="1" vertex="1">
                    <mxGeometry x="310" y="172" width="120" height="30" as="geometry"/>
                </mxCell>
                <mxCell id="180" value="if you have a different calculation of PWM filling&lt;div&gt;, write to me how to calculate the power&lt;/div&gt;" style="text;html=1;align=center;verticalAlign=middle;resizable=0;points=[];autosize=1;strokeColor=none;fillColor=none;" parent="1" vertex="1">
                    <mxGeometry x="450" y="50" width="270" height="40" as="geometry"/>
                </mxCell>
            </root>
        </mxGraphModel>
    </diagram>
</mxfile>